<?xml version="1.0" standalone="no"?>
<!DOCTYPE svg PUBLIC "-//W3C//DTD SVG 20010904//EN"
 "http://www.w3.org/TR/2001/REC-SVG-20010904/DTD/svg10.dtd">
<svg version="1.0" xmlns="http://www.w3.org/2000/svg"
 width="720.000000pt" height="380.000000pt" viewBox="0 0 720.000000 380.000000"
 preserveAspectRatio="xMidYMid meet">
	<metadata>
		Created by potrace 1.13, written by Peter Selinger 2001-2015
	</metadata>
		<g transform="translate(0.000000,380.000000) scale(0.100000,-0.100000)"
		fill="#fff" stroke="none">
		<path d="M3405 3545 c-134 -24 -177 -35 -283 -71 -125 -41 -274 -114 -381
		-186 -383 -257 -628 -623 -722 -1078 -28 -132 -33 -454 -9 -589 l14 -83 -89
		-347 c-49 -190 -90 -364 -93 -387 l-4 -41 199 -48 c109 -26 286 -69 393 -95
		l196 -47 104 -71 c160 -107 343 -188 530 -236 125 -32 211 -41 395 -41 187 0
		283 10 405 42 30 8 69 18 85 23 94 25 295 114 386 172 183 116 372 288 469
		428 13 19 27 37 30 40 13 11 89 139 124 208 110 219 160 410 175 681 9 158 7
		191 -31 396 -76 420 -338 816 -704 1062 -103 70 -210 128 -299 162 -33 13 -69
		27 -80 31 -54 23 -185 54 -329 80 -80 14 -394 10 -481 -5z m585 -258 c157 -38
		275 -85 420 -168 122 -70 308 -239 412 -375 71 -92 69 -100 -24 -161 -40 -25
		-86 -54 -103 -63 -16 -10 -68 -41 -115 -70 -47 -29 -130 -80 -185 -113 -55
		-33 -119 -73 -142 -88 -23 -16 -44 -29 -48 -29 -4 0 -26 -13 -50 -30 -24 -16
		-46 -30 -50 -30 -3 0 -33 -18 -65 -40 -32 -22 -61 -40 -63 -40 -3 0 -54 -31
		-114 -68 -59 -38 -127 -79 -150 -92 -23 -13 -40 -27 -37 -31 3 -5 31 -24 62
		-43 148 -88 301 -181 339 -207 23 -16 44 -29 48 -29 3 0 33 -18 65 -40 32 -22
		61 -40 64 -40 2 0 41 -22 85 -50 45 -27 117 -72 162 -100 44 -27 83 -50 85
		-50 3 0 38 -22 79 -50 41 -27 77 -50 80 -50 4 0 26 -13 50 -30 24 -16 47 -30
		52 -30 4 0 14 -9 21 -20 10 -16 10 -25 1 -43 -44 -83 -225 -277 -339 -364 -58
		-44 -195 -125 -270 -160 -230 -107 -557 -149 -815 -105 -222 38 -397 108 -580
		231 l-105 71 -268 65 c-147 36 -289 71 -317 78 -38 9 -51 17 -53 32 -2 12 31
		156 73 320 l76 300 -17 108 c-21 139 -15 370 14 502 64 288 195 523 406 730
		203 199 466 334 745 385 154 28 423 22 571 -13z m273 -1277 c45 -27 81 -92 73
		-133 -8 -41 -44 -93 -74 -106 -13 -6 -47 -11 -76 -11 -47 0 -57 4 -85 32 -43
		44 -58 97 -41 139 38 90 126 124 203 79z m428 -2 c78 -44 92 -148 28 -214 -30
		-31 -38 -34 -92 -34 -44 0 -66 5 -88 21 -84 60 -77 174 15 230 41 25 89 24
		137 -3z m433 0 c84 -55 87 -170 7 -227 -44 -31 -139 -30 -174 3 -77 72 -65
		181 26 232 37 20 103 17 141 -8z"/>
		<path d="M3999 2615 c-106 -57 -61 -225 60 -225 43 0 73 16 99 54 70 103 -48
		231 -159 171z"/>
	</g>
</svg>
